<svg xmlns="http://www.w3.org/2000/svg" width="496" height="466" viewBox="0 0 496 466" fill="none">
  <path opacity="0.2" d="M417.501 552.498C401.082 564.712 376.368 574.929 345.506 583.427C314.653 591.924 277.696 598.692 236.823 604.029C155.077 614.703 57.7066 619.647 -37.749 621.255C-228.666 624.471 -411.858 614.341 -446.953 610.031C-449.002 609.78 -450.629 608.78 -451.873 607.057C-453.129 605.318 -454.004 602.827 -454.483 599.601C-455.441 593.148 -454.792 583.918 -452.658 572.362C-448.394 549.265 -438.235 517.046 -423.424 479.539C-393.804 404.532 -345.612 308.468 -288.893 222.107C-232.164 135.731 -166.95 59.1321 -103.305 22.9792C-71.4916 4.90776 -40.1182 -3.03078 -10.4124 2.91077C19.2814 8.84992 47.4051 28.6775 72.6907 66.3358C88.6596 94.8705 98.0316 126.624 105.982 158.051C107.74 165 109.428 171.933 111.104 178.813C117.002 203.033 122.737 226.581 130.75 247.717C141.046 274.871 155.127 298.119 178.223 313.79C201.321 329.463 233.364 337.511 279.49 334.406C313.253 332.134 350.431 335.99 384.287 345.222C418.149 354.456 448.644 369.055 469.078 388.236C489.497 407.404 499.847 431.116 493.539 458.658C487.221 486.243 464.171 517.781 417.501 552.498Z" fill="#3F2B68" stroke="#D5C8EE"/>
</svg>