<svg xmlns="http://www.w3.org/2000/svg" width="639" height="484" viewBox="0 0 639 484" fill="none">
  <path opacity="0.2" d="M715 37L715.199 37L715.344 36.8633C744.985 8.84438 770.788 -1.64813 792.933 1.29604C815.074 4.23981 833.741 20.6417 849.052 46.8543C879.678 99.2867 896.639 190.585 901.106 289.884C905.571 389.162 897.543 496.339 878.258 580.473C868.616 622.542 856.164 658.823 841.07 685.468C825.965 712.131 808.275 729.043 788.199 732.583C771.407 735.544 749.903 739.553 724.817 744.23C628.577 762.172 479.625 789.942 341.781 806.056C254.893 816.213 172.451 821.734 110.426 817.249C79.4098 815.007 53.5376 810.264 34.7766 802.372C16.0132 794.478 4.46258 783.481 1.86927 768.774C-0.743389 753.957 2.54258 736.154 10.6734 716.252C18.8015 696.357 31.7523 674.409 48.4083 651.322C81.7199 605.149 129.813 554.472 183.652 506.626C237.488 458.782 297.055 413.781 353.303 378.955C409.564 344.121 462.46 319.495 502.964 312.353C523.333 308.761 538.642 301.744 550.235 292.193C561.829 282.642 569.68 270.58 575.167 256.942C584.582 233.543 587.06 205.436 589.538 177.325C589.945 172.706 590.352 168.087 590.79 163.489C593.899 130.848 598.556 99.2457 615.608 75.7923C632.627 52.3847 662.071 37 715 37Z" stroke="#D5C8EE"/>
</svg>
