<svg xmlns="http://www.w3.org/2000/svg" width="480" height="238" viewBox="0 0 480 238" fill="none">
  <path opacity="0.2" d="M479.005 -27.4311C481.172 -12.396 476.236 8.42924 465.912 31.4908C455.596 54.5335 439.933 79.7398 420.738 103.51C382.329 151.073 329.869 192.776 277.929 200.005C259.304 202.597 236.055 206.487 210.371 210.784C164.091 218.526 109.905 227.592 60.6269 232.772C22.3209 236.799 -12.9615 238.471 -39.2005 235.354C-52.3228 233.795 -63.141 231.043 -70.9368 226.818C-78.7197 222.6 -83.4483 216.941 -84.5131 209.554C-88.8812 179.251 -90.6207 110.568 -78.2457 47.663C-72.0583 16.2106 -62.3493 -13.7601 -47.7037 -36.7614C-33.0628 -59.7552 -13.5147 -75.7481 12.3616 -79.3496C64.4415 -86.5981 179.018 -88.6914 281.676 -81.3815C333.004 -77.7266 381.325 -71.7229 417.35 -62.8463C435.365 -58.4073 450.277 -53.2565 460.947 -47.3382C471.639 -41.4074 477.946 -34.7767 479.005 -27.4311Z" stroke="#D5C8EE"/>
</svg>
