<svg xmlns="http://www.w3.org/2000/svg" width="437" height="423" viewBox="0 0 437 423" fill="none">
  <path opacity="0.2" d="M584.112 86.4606V86.7087L584.31 86.8588C588.644 90.1512 596.26 94.707 605.725 100.241C607.48 101.267 609.299 102.327 611.174 103.419C619.425 108.227 628.755 113.664 638.415 119.586C662.134 134.127 687.786 151.564 704.286 169.751C712.536 178.845 718.464 188.089 720.742 197.217C723.014 206.32 721.666 215.334 715.308 224.034C708.933 232.757 697.502 241.192 679.554 249.043C661.611 256.891 637.196 264.138 604.903 270.509L604.711 270.547L604.595 270.706C537.608 362.938 483.51 406.239 439.338 418.171C417.27 424.133 397.672 422.268 380.15 414.754C362.619 407.236 347.14 394.049 333.347 377.325C305.753 343.868 284.986 296.348 268.077 252.079C263.228 239.384 258.704 226.979 254.427 215.25C251.243 206.518 248.195 198.161 245.252 190.339C238.367 172.04 232.065 156.699 225.976 146.53L225.904 146.41L225.78 146.344C217.863 142.176 206.484 139.745 193.052 138.021C182.555 136.673 170.76 135.752 158.323 134.78C154.833 134.507 151.292 134.231 147.716 133.94C115.039 131.281 79.333 127.409 51.2599 114.344C37.2329 107.816 25.1317 99.0005 16.2684 86.9104C7.40742 74.8236 1.76099 59.4345 0.687018 39.7209C-1.46234 0.267639 14.7043 -56.4814 60.0502 -138.584C105.342 -220.589 160.677 -249.927 218.163 -247.345C275.718 -244.76 335.566 -210.178 389.826 -164.012C444.071 -117.858 492.661 -60.1852 527.689 -11.5441C545.203 12.7755 559.322 34.8305 569.06 52.0511C573.93 60.6621 577.7 68.0577 580.251 73.9193C581.527 76.8503 582.495 79.3911 583.143 81.5041C583.794 83.6254 584.112 85.2834 584.112 86.4606Z" fill="#403061" stroke="#D5C8EE"/>
</svg>